<svg width="80" height="80" viewBox="0 0 80 80" fill="none" xmlns="http://www.w3.org/2000/svg">
<path d="M48.3824 29.5651L45.4993 29.1453C45.4109 29.1453 45.3225 29.1453 45.3225 29.2334L44.1019 30.7994C44.0322 30.9016 44.0009 31.025 44.0135 31.1479C44.0135 31.2361 43.9251 31.4124 43.841 31.3242L42.8771 31.0639C42.7045 31.0639 42.5278 31.0639 42.4562 31.2361L38.5251 36.2741C38.4367 36.3623 38.3483 36.3623 38.1757 36.3623L36.69 35.6653C36.6269 35.6258 36.554 35.6049 36.4795 35.6049C36.4051 35.6049 36.3321 35.6258 36.2691 35.6653L35.4441 36.1943C35.3815 36.2348 35.3084 36.2564 35.2337 36.2564C35.159 36.2564 35.0859 36.2348 35.0233 36.1943L34.6739 36.0222C34.617 35.9966 34.5554 35.983 34.493 35.9824C34.4306 35.9817 34.3688 35.994 34.3114 36.0185C34.254 36.043 34.2023 36.0791 34.1597 36.1245C34.117 36.17 34.0843 36.2238 34.0636 36.2825L33.7985 37.5C33.767 37.6293 33.7755 37.7651 33.8228 37.8895C33.8701 38.0139 33.9541 38.1211 34.0636 38.197L34.7623 38.6168L36.5932 39.7504L37.4686 40.271C37.5915 40.3429 37.7344 40.3736 37.8761 40.3585C38.0178 40.3434 38.1508 40.2833 38.2557 40.187L39.7373 38.8771C39.8648 38.8046 40.0124 38.7752 40.1581 38.7931L40.579 39.0534C40.7516 39.1416 40.9284 39.1416 40.9999 38.9653L41.7828 38.2683C41.8366 38.2143 41.9052 38.1771 41.98 38.1614C42.0548 38.1458 42.1326 38.1523 42.2037 38.1802L43.3401 38.705C43.4277 38.7336 43.521 38.7406 43.612 38.7252C43.7029 38.7098 43.7887 38.6726 43.862 38.6168L44.3881 37.9199L48.3192 32.8818C48.4918 32.6173 48.4034 32.2689 48.0541 32.2689L47.2291 32.0841C47.0524 32.0841 46.9682 31.8238 47.0524 31.6643L48.4497 30.0101C48.6433 29.8338 48.5549 29.5651 48.3824 29.5651Z" fill="white"/>
<path d="M35.28 39.7671C35.1916 39.6789 35.1074 39.7671 35.1074 39.8553L35.5283 40.9846V41.2491L35.179 42.727C35.173 42.7748 35.1778 42.8234 35.1931 42.8692C35.2084 42.915 35.2338 42.9567 35.2674 42.9915L36.3154 43.7724C36.3637 43.8146 36.4258 43.8379 36.49 43.8379C36.5543 43.8379 36.6164 43.8146 36.6647 43.7724L37.8011 42.8151C37.8351 42.7817 37.8763 42.7564 37.9215 42.7411C37.9667 42.7259 38.0147 42.721 38.0621 42.727L39.2869 42.5548C39.3711 42.5548 39.3711 42.4667 39.2869 42.3785L35.28 39.7671Z" fill="white"/>
<path d="M34.9306 43.5119C34.9158 43.4911 34.8962 43.4742 34.8735 43.4625C34.8508 43.4508 34.8257 43.4446 34.8001 43.4446C34.7746 43.4446 34.7494 43.4508 34.7267 43.4625C34.704 43.4742 34.6844 43.4911 34.6696 43.5119L33.7942 43.9318C33.7827 43.9317 33.7714 43.934 33.761 43.9385C33.7505 43.943 33.741 43.9496 33.7331 43.9578C33.7252 43.9661 33.7191 43.9758 33.7151 43.9865C33.7112 43.9972 33.7094 44.0085 33.71 44.0199L31.7865 48.7221H31.8749L32.2958 48.55V48.6339L30.8984 50.9011C30.8984 50.9892 30.8984 50.9892 30.9826 50.9892L35.8734 46.0225C35.9618 46.0225 35.9618 45.9344 35.9618 45.8462L36.0502 44.5405C36.0502 44.4523 36.0502 44.3684 35.9618 44.3684L34.9306 43.5119Z" fill="white"/>
<path d="M29.9976 80.0001L28.0615 76.3853L31.4287 74.0552L32.0768 74.9578L31.012 75.6757C30.8301 75.8062 30.6403 75.9254 30.4438 76.0326C30.2661 76.1334 30.0803 76.2191 29.8882 76.2887L33.5079 77.162L33.2595 78.1864L29.6315 77.3089C29.7267 77.4065 29.8153 77.5102 29.8966 77.6196C29.9766 77.7246 30.0523 77.8379 30.1281 77.9597L30.3596 78.3795L30.9741 79.5047L29.9976 80.0001Z" fill="#FFCD1E"/>
<path d="M14.1383 66.1875C14.7149 65.5283 15.6325 65.4611 16.4532 66.1875L18.1368 67.6611L14.7696 71.4942L13.4312 70.2893C12.5557 69.5252 12.2359 68.7233 12.8504 68.0179C12.9828 67.8522 13.161 67.7289 13.363 67.6632C13.565 67.5976 13.7819 67.5924 13.9868 67.6485C13.8357 67.4261 13.7681 67.1577 13.7958 66.8904C13.8235 66.6232 13.9448 66.3743 14.1383 66.1875ZM15.342 69.3866L14.6602 68.7946C14.2393 68.421 13.8773 68.316 13.6585 68.5679C13.4396 68.8198 13.5911 69.1515 14.0246 69.5252L14.7023 70.1171L15.342 69.3866ZM14.7949 66.9012C14.496 67.2454 14.656 67.6653 15.1274 68.0767L15.9018 68.7485L16.7815 67.7451L16.007 67.0733C15.5356 66.6619 15.0979 66.5527 14.7949 66.9012Z" fill="white"/>
<path d="M6.5542 62.6861L8.87753 60.9228C9.9466 60.1083 11.1714 60.1251 11.9585 61.1537C12.7455 62.1823 12.4341 63.3662 11.365 64.1765L9.04168 65.9398L8.45664 65.1757L10.8726 63.3368C11.003 63.2577 11.1153 63.152 11.2022 63.0268C11.2891 62.9016 11.3486 62.7595 11.377 62.6099C11.4053 62.4602 11.4019 62.3063 11.3668 62.1581C11.3317 62.0099 11.2658 61.8706 11.1733 61.7495C11.0809 61.6283 10.9639 61.5278 10.8301 61.4545C10.6962 61.3813 10.5484 61.3369 10.3962 61.3243C10.2441 61.3117 10.091 61.3311 9.9468 61.3812C9.80263 61.4314 9.67065 61.5112 9.55938 61.6155L7.13925 63.4502L6.5542 62.6861Z" fill="white"/>
<path d="M8.94913 56.7536L4.43716 59.1257L3.98682 58.286L8.5072 55.9013L8.94913 56.7536Z" fill="white"/>
<path d="M5.17348 50.2587L6.09104 49.9438L7.07592 52.7861L2.24829 54.4655L1.93262 53.5545L5.8385 52.211L5.17348 50.2587Z" fill="white"/>
<path d="M2.19362 42.9537C3.59098 42.7606 4.84945 43.5625 5.08094 45.2376L5.31244 46.917L0.261726 47.6097L0.0344403 45.9303C-0.201259 44.209 0.800467 43.1426 2.19362 42.9537ZM2.3241 43.9067C2.11939 43.9251 1.92061 43.985 1.73997 44.0827C1.55934 44.1805 1.40066 44.3142 1.27371 44.4754C1.14677 44.6366 1.05424 44.8221 1.00181 45.0203C0.949373 45.2185 0.938147 45.4253 0.968822 45.6281L1.08667 46.5097L4.21811 46.0899L4.09605 45.2124C4.07113 45.009 4.005 44.8128 3.9017 44.6357C3.79839 44.4586 3.66006 44.3043 3.49511 44.1822C3.33017 44.0601 3.14204 43.9727 2.94218 43.9253C2.74232 43.878 2.53489 43.8716 2.33251 43.9067H2.3241Z" fill="white"/>
<path d="M0.737383 30.4046L1.6928 30.5935L1.43185 31.895L5.48505 32.7011L5.29564 33.6457L1.24245 32.8397L0.981494 34.137L0.0302734 33.948L0.737383 30.4046Z" fill="white"/>
<path d="M3.52359 22.684L8.22916 24.6531L7.85458 25.5431L5.94793 24.7454L5.10615 26.7438L7.01279 27.5415L6.63819 28.4274L1.93262 26.4584L2.3072 25.5683L4.20965 26.366L5.05143 24.3676L3.14899 23.5699L3.52359 22.684Z" fill="white"/>
<path d="M7.00025 18.6492L7.90517 19.2622L8.91952 17.7676L9.72342 18.3092L8.70907 19.8038L9.61399 20.4167L10.8346 18.624L11.6385 19.1656L9.87494 21.756L5.66602 18.9011L7.42534 16.3107L8.22925 16.8565L7.00025 18.6492Z" fill="white"/>
<path d="M17.1733 13.3046L14.0503 9.27841L16.5336 7.36395L17.127 8.12806L15.4098 9.45474L16.0832 10.3196L17.5142 9.21123L18.1119 9.97954L16.6724 11.0921L17.9351 12.7211L17.1733 13.3046Z" fill="white"/>
<path d="M23.5708 3.367L24.8797 5.9658C25.4816 7.16234 25.2417 8.35887 24.0843 8.94244C22.9268 9.52602 21.8156 9.00122 21.2138 7.80049L19.9048 5.21429L20.7676 4.79445L22.1313 7.49821C22.1965 7.62584 22.2863 7.73941 22.3955 7.83243C22.5048 7.92546 22.6313 7.99611 22.7679 8.04036C22.9045 8.08461 23.0485 8.10158 23.1916 8.09032C23.3348 8.07906 23.4744 8.03978 23.6023 7.97472C23.7303 7.90966 23.8441 7.8201 23.9374 7.71115C24.0307 7.6022 24.1015 7.476 24.1458 7.33975C24.1902 7.20349 24.2072 7.05985 24.1959 6.91704C24.1847 6.77422 24.1453 6.63502 24.08 6.50739L22.7164 3.79944L23.5708 3.367Z" fill="white"/>
<path d="M30.8142 0.990906L31.071 1.92295L29.8083 2.27561L30.9068 6.25147L29.9724 6.50337L28.8781 2.53171L27.6154 2.88437L27.3545 1.94814L30.8142 0.990906Z" fill="white"/>
<path d="M38.8621 0L39.0725 2.90108C39.1693 4.23616 38.4833 5.24797 37.1911 5.34033C35.899 5.4327 35.0867 4.53005 34.9814 3.19076L34.771 0.293885L35.7348 0.222513L35.9495 3.24534C35.9422 3.39945 35.9677 3.55335 36.0244 3.69689C36.0811 3.84044 36.1676 3.97037 36.2783 4.07811C36.389 4.18586 36.5214 4.26897 36.6666 4.32198C36.8119 4.37498 36.9668 4.39667 37.121 4.38562C37.2753 4.37456 37.4255 4.33101 37.5616 4.25784C37.6978 4.18467 37.8168 4.08353 37.911 3.96111C38.0051 3.83869 38.0721 3.69775 38.1077 3.5476C38.1432 3.39745 38.1464 3.24149 38.1171 3.09L37.8982 0.0671739L38.8621 0Z" fill="white"/>
<path d="M45.1247 5.52964L44.2114 3.69915L43.6347 3.62778L43.4201 5.30713L42.4604 5.18118L43.1128 0.143127L44.91 0.374039C46.219 0.541974 46.7325 1.32707 46.5936 2.30529C46.5531 2.66172 46.3993 2.99586 46.1547 3.25877C45.9101 3.52168 45.5875 3.69955 45.2341 3.76633L46.2779 5.68498L45.1247 5.52964ZM43.761 2.66635L44.7206 2.7881C44.8222 2.81012 44.9271 2.81164 45.0292 2.79259C45.1313 2.77355 45.2286 2.7343 45.3152 2.67718C45.4019 2.62006 45.4763 2.54622 45.5339 2.45999C45.5915 2.37377 45.6313 2.27692 45.6508 2.17514C45.664 2.06989 45.6545 1.96305 45.623 1.86173C45.5916 1.76041 45.5389 1.66693 45.4684 1.58751C45.3979 1.50808 45.3113 1.44452 45.2143 1.40107C45.1173 1.35761 45.0122 1.33525 44.9058 1.33547L43.9462 1.21371L43.761 2.66635Z" fill="white"/>
<path d="M51.4928 2.79613L51.1519 3.83313L52.8692 4.39991L52.5661 5.31935L50.8489 4.75257L50.508 5.78957L52.5703 6.4697L52.2799 7.38915L49.3042 6.40673L50.8994 1.5744L53.8793 2.55262L53.5763 3.47626L51.4928 2.79613Z" fill="white"/>
<path d="M65.0328 7.6413L65.3106 11.7305L61.2658 12.4694L61.0469 11.3737L62.3096 11.1553C62.5411 11.1134 62.7642 11.0798 62.9746 11.063C63.1777 11.0462 63.3818 11.0462 63.5849 11.063L60.6387 8.77906L61.2868 7.93938L64.2331 10.2233C64.1856 10.0961 64.1476 9.96563 64.1195 9.83285C64.0873 9.69463 64.0648 9.55435 64.0521 9.41301C64.0521 9.27446 64.0184 9.11493 64.0058 8.94699L63.909 7.68748L65.0328 7.6413Z" fill="#FFCD1E"/>
<path d="M71.8934 26.1558L72.954 24.4093L72.7099 23.8845L71.1694 24.5982L70.7485 23.725L75.3784 21.5838L76.1444 23.2212C76.7 24.4135 76.3085 25.2658 75.4162 25.6814C75.0921 25.8375 74.7262 25.8859 74.3725 25.8194C74.0187 25.7529 73.6956 25.5751 73.4507 25.312L72.3816 27.218L71.8934 26.1558ZM73.5769 23.4773L73.9978 24.3505C74.0333 24.4482 74.0881 24.5378 74.1589 24.614C74.2297 24.6902 74.3152 24.7514 74.4101 24.7941C74.5051 24.8368 74.6077 24.86 74.7118 24.8624C74.816 24.8648 74.9195 24.8464 75.0164 24.8082C75.1113 24.7624 75.1954 24.6971 75.2632 24.6166C75.3309 24.536 75.3808 24.4421 75.4094 24.3409C75.4381 24.2397 75.4449 24.1336 75.4293 24.0296C75.4138 23.9256 75.3764 23.8261 75.3194 23.7376L74.8985 22.8643L73.5769 23.4773Z" fill="white"/>
<path d="M76.9648 34.2758C76.4527 34.3878 75.9188 34.3461 75.4305 34.1559C74.9421 33.9658 74.521 33.6357 74.2204 33.2073C73.9197 32.7789 73.7529 32.2713 73.7409 31.7485C73.729 31.2257 73.8724 30.7111 74.1531 30.2694C74.4339 29.8278 74.8394 29.4789 75.3186 29.2667C75.7977 29.0545 76.3291 28.9886 76.8458 29.0771C77.3625 29.1657 77.8414 29.4048 78.2221 29.7644C78.6028 30.1239 78.8683 30.5878 78.9851 31.0976C79.1395 31.7863 79.0134 32.5079 78.6346 33.1039C78.2557 33.6999 77.6551 34.1214 76.9648 34.2758ZM76.7502 33.3353C77.0733 33.2583 77.3663 33.0875 77.5924 32.8447C77.8184 32.6018 77.9674 32.2976 78.0205 31.9705C78.0736 31.6433 78.0285 31.3078 77.8908 31.0062C77.7532 30.7046 77.5291 30.4503 77.2469 30.2755C76.9646 30.1006 76.6369 30.013 76.3048 30.0235C75.9727 30.0341 75.6512 30.1425 75.3807 30.335C75.1103 30.5275 74.903 30.7955 74.7849 31.1053C74.6668 31.415 74.6433 31.7527 74.7172 32.0758C74.7658 32.293 74.8572 32.4984 74.9861 32.68C75.1149 32.8617 75.2787 33.016 75.4678 33.1339C75.657 33.2519 75.8677 33.3312 76.0879 33.3672C76.308 33.4032 76.5331 33.3952 76.7502 33.3437V33.3353Z" fill="white"/>
<path d="M76.1698 41.6185L75.2944 42.0006C74.8945 41.5503 74.6678 40.973 74.6546 40.3716C74.6491 40.0215 74.7128 39.6738 74.842 39.3482C74.9712 39.0226 75.1634 38.7257 75.4077 38.4742C75.6519 38.2227 75.9435 38.0217 76.2656 37.8827C76.5878 37.7436 76.9342 37.6692 77.2852 37.6637C77.6362 37.6581 77.9848 37.7216 78.3112 37.8505C78.6376 37.9794 78.9353 38.1712 79.1874 38.4148C79.4395 38.6585 79.641 38.9493 79.7804 39.2706C79.9198 39.592 79.9944 39.9375 80 40.2876C80.0091 40.8877 79.8031 41.4714 79.4191 41.9334L78.531 41.5807C78.8568 41.2428 79.0353 40.79 79.0277 40.3212C79.0112 40.0491 78.9286 39.785 78.7869 39.5518C78.6452 39.3186 78.4487 39.1234 78.2144 38.9829C77.9801 38.8424 77.7151 38.761 77.4421 38.7456C77.1692 38.7302 76.8966 38.7814 76.648 38.8946C76.3993 39.0079 76.182 39.1798 76.0149 39.3956C75.8478 39.6114 75.7358 39.8645 75.6888 40.1331C75.6417 40.4017 75.6609 40.6777 75.7447 40.9372C75.8285 41.1968 75.9744 41.432 76.1698 41.6227V41.6185Z" fill="white"/>
<path d="M73.665 49.0833L73.905 47.8867L76.464 46.4467L74.2753 46.0268L74.4647 45.0822L79.4691 46.0688L79.2798 47.0135L77.209 46.5936L78.9346 48.76L78.6947 49.9523L76.7249 47.3577L73.665 49.0833Z" fill="white"/>
<path d="M76.2116 54.3355L75.1973 53.9156L74.5112 55.595L73.6147 55.2297L74.2966 53.5504L73.2864 53.1305L72.4447 55.1332L71.5439 54.7679L72.7267 51.871L77.4533 53.7939L76.2664 56.6908L75.3699 56.3255L76.2116 54.3355Z" fill="white"/>
<path d="M72.4825 63.2696L71.6828 62.7322L72.4025 61.6196L68.9302 59.3861L69.4521 58.58L72.9244 60.8135L73.6484 59.701L74.4649 60.2258L72.4825 63.2696Z" fill="white"/>
<path d="M64.6793 66.7963C64.0185 66.1665 63.9765 65.1631 64.9066 64.1975C65.1668 63.9148 65.4829 63.689 65.835 63.5343C66.1871 63.3797 66.5675 63.2996 66.9522 63.299L67.2299 64.2352C66.928 64.2266 66.6274 64.2795 66.3466 64.3907C66.0659 64.5019 65.8108 64.669 65.5969 64.8818C65.1339 65.3646 65.0455 65.8138 65.3023 66.0615C65.559 66.3092 65.942 66.1707 66.4723 65.7635C67.6298 64.8776 68.3622 64.8986 68.9177 65.4318C69.4733 65.965 69.5954 67.0272 68.7199 67.9508C68.2865 68.4161 67.7021 68.7136 67.07 68.7905L66.7501 67.9214C67.2307 67.8611 67.6761 67.6389 68.0128 67.2917C68.3706 66.9222 68.5768 66.4982 68.2822 66.2127C67.9876 65.9272 67.735 66.0951 67.1373 66.536C66.2577 67.1699 65.4664 67.552 64.6793 66.7963Z" fill="white"/>
<path d="M62.802 71.6578L62.1706 70.7678L60.6933 71.809L60.1335 71.0197L61.6109 69.9785L60.9795 69.0884L59.2033 70.3479L58.6436 69.5544L61.2068 67.7491L64.153 71.9013L61.5898 73.7108L61.03 72.9173L62.802 71.6578Z" fill="white"/>
<path d="M53.3529 73.3414L55.3101 72.4723L55.2596 71.4353L56.2529 71.0155L56.4086 76.5196L55.6089 76.8722L51.623 73.0643L52.6121 72.6445L53.3529 73.3414ZM54.0853 74.0761L55.4658 75.4532L55.3648 73.5093L54.0853 74.0761Z" fill="white"/>
<path d="M47.2966 79.4334L47.0693 78.4888L48.3615 78.1823L47.4061 74.1728L48.3446 73.9503L49.3001 77.9598L50.5922 77.6533L50.8195 78.5937L47.2966 79.4334Z" fill="white"/>
</svg>
